# xmcd CD database file
#
# Track frame offsets:
#	150
#	13930
#	33196
#	51911
#	68188
#	87950
#	106570
#	126424
#	137790
#	156744
#	174335
#	186971
#
# Disc length: 2697 seconds
#
# Revision: 0
# Processed by: cddbd v1.5.2PL0 Copyright (c) Steve Scherf et al.
# Submitted via: CDex 1.50
#
DISCID=a50a870c
DTITLE=Various Artist - TSA Country Song Search 2
DYEAR=2001
DGENRE=Country
TTITLE0=Jenine Vaughan - I*t's Time
TTITLE1=Brian Letton - Two Mothers
TTITLE2=Heidi Rae Jonsson and Kedron Taylor - Rodeo Widow
TTITLE3=Glenn Jones - Hard Drinking Man
TTITLE4=Alison Christopher - Simple Things
TTITLE5=Graham Rodger - The B&S Ball
TTITLE6=Shaza Leigh - Peace Of Mind
TTITLE7=Rick E Nelson - Take Two Pills
TTITLE8=Wendy Wood - 'Till She Called Here Last Night
TTITLE9=Keith Jamieson - Heaven's Highway One
TTITLE10=Terry Gordon - Inside a Woman's Handbag
TTITLE11=Elizabeth Lord - When I Dream
EXTD=YEAR: 2001
EXTT0=
EXTT1=
EXTT2=
EXTT3=
EXTT4=
EXTT5=
EXTT6=
EXTT7=
EXTT8=
EXTT9=
EXTT10=
EXTT11=
PLAYORDER=
